<?xml version="1.0" encoding="UTF-8" standalone="no"?>
<!DOCTYPE svg PUBLIC "-//W3C//DTD SVG 1.1//EN"
 "http://www.w3.org/Graphics/SVG/1.1/DTD/svg11.dtd">
<!-- Generated by graphviz version 12.1.1 (20240910.0053)
 -->
<!-- Title: INFRA Pages: 1 -->
<svg width="141pt" height="188pt"
 viewBox="0.00 0.00 141.49 188.00" xmlns="http://www.w3.org/2000/svg" xmlns:xlink="http://www.w3.org/1999/xlink">
<g id="graph0" class="graph" transform="scale(1 1) rotate(0) translate(4 184)">
<title>INFRA</title>
<polygon fill="white" stroke="none" points="-4,4 -4,-184 137.49,-184 137.49,4 -4,4"/>
<!-- Hugo Website -->
<g id="node1" class="node">
<title>Hugo Website</title>
<path fill="#e78f81" stroke="black" stroke-width="2" d="M106.71,-72C106.71,-72 26.78,-72 26.78,-72 20.78,-72 14.78,-66 14.78,-60 14.78,-60 14.78,-12 14.78,-12 14.78,-6 20.78,0 26.78,0 26.78,0 106.71,0 106.71,0 112.71,0 118.71,-6 118.71,-12 118.71,-12 118.71,-60 118.71,-60 118.71,-66 112.71,-72 106.71,-72"/>
<text text-anchor="middle" x="66.74" y="-40.2" font-family="Arial" font-size="14.00">Hugo Website</text>
<text text-anchor="middle" x="66.74" y="-23.4" font-family="Arial" font-size="14.00">(Static Site)</text>
</g>
<!-- Netlify Deployment -->
<g id="node2" class="node">
<title>Netlify Deployment</title>
<path fill="#e78f81" stroke="black" stroke-width="2" d="M121.49,-180C121.49,-180 12,-180 12,-180 6,-180 0,-174 0,-168 0,-168 0,-120 0,-120 0,-114 6,-108 12,-108 12,-108 121.49,-108 121.49,-108 127.49,-108 133.49,-114 133.49,-120 133.49,-120 133.49,-168 133.49,-168 133.49,-174 127.49,-180 121.49,-180"/>
<text text-anchor="middle" x="66.74" y="-148.2" font-family="Arial" font-size="14.00">Netlify Deployment</text>
<text text-anchor="middle" x="66.74" y="-131.4" font-family="Arial" font-size="14.00">(Netlify)</text>
</g>
<!-- Netlify Deployment&#45;&gt;Hugo Website -->
<g id="edge1" class="edge">
<title>Netlify Deployment&#45;&gt;Hugo Website</title>
<path fill="none" stroke="black" d="M66.74,-107.7C66.74,-99.93 66.74,-91.57 66.74,-83.43"/>
<polygon fill="black" stroke="black" points="70.24,-83.66 66.74,-73.66 63.24,-83.66 70.24,-83.66"/>
</g>
</g>
</svg>
